<svg width="250" height="372" viewBox="0 0 250 372" fill="none" xmlns="http://www.w3.org/2000/svg">
<path d="M-99.0328 301.192C-99.0328 301.32 -24.1389 301.422 68.231 301.422C160.601 301.422 235.512 301.32 235.512 301.192C235.512 301.065 160.626 300.971 68.231 300.971C-24.1644 300.971 -99.0328 301.073 -99.0328 301.192Z" fill="#D6D6D6"/>
<path d="M36.6518 44.5338L43.2733 104.196C44.4038 114.345 48.1353 129.016 64.0899 126.508C77.775 123.278 79.832 109.695 78.7695 100.226C78.268 95.738 77.86 91.9895 77.8345 91.5305C77.8345 91.5305 92.8625 88.411 92.2845 73.2554C92.004 65.9369 90.2105 50.8918 88.4255 37.3088C87.4989 30.2722 83.9564 23.8427 78.5034 19.3C73.0503 14.7574 66.0866 12.4348 58.9984 12.7946L57.5364 12.8627C41.8283 14.5542 34.5098 28.8767 36.6518 44.5338Z" fill="#936760"/>
<path d="M77.8356 91.5306C70.8398 91.8623 63.8956 90.1808 57.8265 86.6855C57.8265 86.6855 63.19 97.5061 78.2266 95.3811L77.8356 91.5306Z" fill="#6F4C47"/>
<path d="M63.5895 46.6248C63.326 46.9648 61.422 45.7747 58.906 46.0297C56.39 46.2847 54.656 47.7298 54.3585 47.4492C54.2055 47.3132 54.452 46.7268 55.2085 46.0467C56.2201 45.1734 57.4811 44.641 58.8125 44.5252C60.1265 44.3949 61.4474 44.6931 62.578 45.3752C63.3685 45.9277 63.683 46.4718 63.5895 46.6248Z" fill="#263238"/>
<path d="M64.1255 51.8268C64.1563 52.3603 63.9784 52.8847 63.6294 53.2893C63.2804 53.6938 62.7876 53.9467 62.2555 53.9944C61.996 54.0275 61.7326 54.0085 61.4806 53.9384C61.2286 53.8683 60.9932 53.7486 60.7881 53.5863C60.583 53.424 60.4124 53.2223 60.2864 52.9931C60.1603 52.764 60.0813 52.512 60.0539 52.2519C60.0232 51.7193 60.2014 51.1959 60.5506 50.7927C60.8998 50.3895 61.3925 50.1384 61.924 50.0928C62.1827 50.0597 62.4456 50.0784 62.697 50.148C62.9485 50.2175 63.1836 50.3365 63.3885 50.4979C63.5935 50.6594 63.7643 50.86 63.8908 51.0882C64.0173 51.3164 64.0971 51.5675 64.1255 51.8268Z" fill="#263238"/>
<path d="M72.0123 63.3275C72.0123 63.1915 73.4233 62.8685 75.7523 62.4775C76.3473 62.384 76.8998 62.2395 76.9848 61.8315C76.9966 61.2292 76.8279 60.6371 76.5003 60.1315L74.5113 55.6945C71.7488 49.3704 69.7173 44.1599 69.9723 44.0579C70.2273 43.9559 72.6753 48.9794 75.4378 55.3035C76.1122 56.8562 76.7497 58.3437 77.3503 59.766C77.7644 60.464 77.9151 61.2871 77.7753 62.0865C77.701 62.3014 77.578 62.4961 77.4157 62.6554C77.2535 62.8147 77.0565 62.9342 76.8403 63.0045C76.5163 63.1133 76.1787 63.1763 75.8373 63.1915C73.4913 63.37 72.0293 63.455 72.0123 63.3275Z" fill="#263238"/>
<path d="M61.3197 37.3091C61.1412 37.8956 59.0842 37.7256 56.6872 38.1591C54.2901 38.5926 52.3776 39.3576 52.0376 38.8561C51.8761 38.6096 52.1906 38.0061 52.9471 37.4536C53.9471 36.7074 55.1143 36.2172 56.3472 36.0256C57.5712 35.8061 58.8307 35.8967 60.0107 36.2891C60.9202 36.6036 61.3877 37.0286 61.3197 37.3091Z" fill="#263238"/>
<path d="M84.9407 37.309C84.7282 37.7935 82.7052 37.53 80.3252 37.751C77.9452 37.972 75.9987 38.5245 75.6927 38.074C75.5567 37.8615 75.8967 37.411 76.6787 36.9435C77.727 36.3681 78.8862 36.0232 80.0787 35.932C81.2965 35.8181 82.5247 35.9629 83.6827 36.357C84.5922 36.6545 85.0257 37.071 84.9407 37.309Z" fill="#263238"/>
<path d="M38.4546 55.686C38.191 55.584 27.889 53.136 28.739 63.472C29.589 73.8081 39.7891 70.8161 39.7891 70.5186C39.7891 70.2211 38.4546 55.686 38.4546 55.686Z" fill="#936760"/>
<path d="M36.3135 66.8635C36.2625 66.8635 36.1435 67.008 35.846 67.1695C35.4334 67.3889 34.9512 67.4377 34.503 67.3055C33.381 66.9995 32.3185 65.342 32.1145 63.4805C32.0141 62.5972 32.1128 61.7026 32.4035 60.8625C32.4738 60.5313 32.6234 60.2221 32.8396 59.9615C33.0558 59.7009 33.332 59.4967 33.6445 59.3665C33.8474 59.2958 34.0686 59.2978 34.2702 59.3723C34.4718 59.4467 34.6412 59.5889 34.7495 59.7745C34.911 60.0465 34.86 60.259 34.9195 60.276C34.979 60.293 35.1235 60.0805 35.0045 59.664C34.9286 59.4122 34.766 59.1954 34.5455 59.052C34.2462 58.8587 33.8827 58.7915 33.534 58.865C33.1165 58.9848 32.7364 59.2093 32.43 59.5173C32.1235 59.8252 31.9008 60.2063 31.783 60.6245C31.4114 61.5544 31.277 62.5622 31.392 63.557C31.63 65.6395 32.854 67.501 34.384 67.807C34.6693 67.8648 34.9638 67.8581 35.2462 67.7875C35.5285 67.7169 35.7915 67.5842 36.016 67.399C36.3135 67.1185 36.3475 66.8805 36.3135 66.8635Z" fill="#6F4C47"/>
<path d="M71.4629 69.0096C71.4076 68.7325 69.3824 69.3637 67.1336 68.5825C66.175 68.2229 65.2677 67.739 64.4351 67.1432C63.7626 66.6846 63.3044 66.4219 63.2291 66.5175C63.1538 66.6132 63.4799 67.0098 64.066 67.5984C64.8597 68.3836 65.8171 68.9838 66.8696 69.3562C67.9395 69.7324 69.0926 69.8052 70.2013 69.5666C71.0324 69.3816 71.4902 69.1006 71.4629 69.0096Z" fill="#263238"/>
<path d="M85.6886 43.3694C85.4251 43.7094 83.5211 42.5194 81.005 42.7744C78.489 43.0294 76.755 44.4744 76.4575 44.1854C76.3045 44.0579 76.551 43.4714 77.3075 42.7914C78.3169 41.9145 79.5792 41.3816 80.9115 41.2699C82.2255 41.1396 83.5464 41.4377 84.6771 42.1199C85.4931 42.6724 85.8076 43.2164 85.6886 43.3694Z" fill="#263238"/>
<path d="M85.8599 49.141C85.8907 49.6744 85.7128 50.1988 85.3637 50.6034C85.0147 51.0079 84.522 51.2608 83.9898 51.3085C83.7336 51.3418 83.4733 51.3243 83.2238 51.2569C82.9744 51.1894 82.7407 51.0734 82.5362 50.9155C82.3316 50.7576 82.1603 50.5608 82.032 50.3365C81.9036 50.1122 81.8209 49.8648 81.7883 49.6085C81.7531 49.0763 81.9285 48.5516 82.2768 48.1476C82.6251 47.7437 83.1183 47.4929 83.6498 47.4494C83.9063 47.4136 84.1673 47.4291 84.4176 47.495C84.668 47.5609 84.9029 47.6758 85.1085 47.8332C85.3141 47.9906 85.4864 48.1872 85.6153 48.4117C85.7443 48.6362 85.8274 48.8841 85.8599 49.141Z" fill="#263238"/>
<path d="M30.2863 46.4377C31.0428 49.3192 32.8363 55.8897 35.3863 55.3032C40.4863 54.1472 40.1888 62.3243 42.6539 61.3638C45.1189 60.4032 45.6969 53.9007 45.4164 51.3082C44.5664 43.2077 41.4553 37.3936 44.8809 28.1456C45.9437 26.3105 47.4621 24.7807 49.2892 23.7042C51.1162 22.6276 53.1902 22.0406 55.3104 22.0001C57.4469 22.0015 59.5475 22.5489 61.413 23.5902C63.2785 24.6315 64.8469 26.1323 65.9695 27.9501C66.4965 25.1196 67.9755 20.8696 70.534 19.5606C71.8144 18.8926 73.2634 18.6169 74.6997 18.7681C76.1359 18.9193 77.4957 19.4906 78.609 20.4106C79.6713 21.3861 80.3431 22.7142 80.4995 24.148C80.6558 25.5818 80.2861 27.0235 79.459 28.2051C80.0409 28.3925 80.6675 28.3887 81.2471 28.1945C81.8267 28.0003 82.329 27.6257 82.6805 27.1256C82.7155 27.7908 82.6135 28.4562 82.3811 29.0805C82.1486 29.7047 81.7905 30.2747 81.329 30.7551C82.3776 30.5214 83.3069 29.9179 83.947 29.0551L83.097 32.5571C87.3471 32.7696 91.6736 28.7236 92.9486 25.0601C94.8781 19.5011 93.6201 13.823 90.6111 8.774C87.6021 3.72498 82.111 0.0869622 76.161 0.0019618C70.211 -0.0830386 65.2895 2.59447 62.9009 7.9665C59.1439 5.17849 51.4344 4.06498 47.1419 5.90099C44.9954 6.84628 43.1265 8.32514 41.713 10.1968C40.2996 12.0685 39.3886 14.2708 39.0668 16.594C36.4318 15.4125 33.2188 16.2115 30.9323 17.9795L30.3798 18.4385C28.8499 19.83 27.698 21.5869 27.032 23.5447C26.366 25.5026 26.2077 27.5974 26.5718 29.6331C26.8438 31.2651 27.3708 32.9651 27.6683 34.2826C28.6713 38.1841 30.2863 46.4377 30.2863 46.4377Z" fill="#263238"/>
<path d="M83.4122 26.9048C83.4122 26.9048 83.5482 26.8283 83.7607 26.6413C84.0746 26.3713 84.3595 26.0693 84.6107 25.7403C85.5828 24.5141 86.1975 23.0434 86.3872 21.4902C86.5587 20.3442 86.4828 19.1747 86.1646 18.0604C85.8465 16.9462 85.2934 15.9129 84.5427 15.0302C83.6224 13.9428 82.4511 13.096 81.13 12.5628C79.809 12.0296 78.3779 11.8262 76.9607 11.9702C75.5021 12.1529 74.1041 12.6644 72.8721 13.4662C71.7232 14.1894 70.6937 15.087 69.8206 16.1267C68.3383 17.8574 67.2454 19.8866 66.6161 22.0767C66.1923 23.5546 65.9889 25.087 66.0126 26.6243C66.0126 27.1683 66.0636 27.5848 66.1061 27.8653C66.1144 28.0095 66.1401 28.1522 66.1826 28.2903C66.09 26.2212 66.3369 24.151 66.9136 22.1617C67.569 20.0197 68.6665 18.0391 70.1351 16.3477C71.8651 14.2255 74.3104 12.8079 77.0117 12.3612C78.358 12.23 79.7162 12.424 80.972 12.9269C82.2278 13.4299 83.3445 14.227 84.2282 15.2512C84.9516 16.0893 85.4898 17.0707 85.8077 18.1312C86.1255 19.1917 86.2159 20.3074 86.0727 21.4052C85.9209 22.9188 85.3759 24.3664 84.4917 25.6043C83.8542 26.4968 83.3867 26.8708 83.4122 26.9048Z" fill="#455A64"/>
<path d="M85.273 31.4266C85.3961 31.2808 85.5016 31.121 85.5875 30.9506C85.783 30.6276 86.0635 30.1006 86.4375 29.5226C87.4428 27.7662 88.2741 25.9157 88.9195 23.9976C89.3534 22.6572 89.6078 21.2653 89.676 19.8581C89.7597 18.2304 89.502 16.6032 88.9195 15.081C88.2406 13.394 87.0784 11.945 85.579 10.916C83.9771 9.81798 82.1169 9.15592 80.1815 8.995C78.2553 8.84664 76.3197 9.11033 74.5034 9.76851C72.817 10.3767 71.2322 11.2364 69.8029 12.3185C67.3092 14.0805 65.4683 16.6178 64.5669 19.5351C64.0058 21.5135 64.0622 23.616 64.7284 25.5616C64.9156 26.0802 65.1548 26.5786 65.4424 27.0491C65.5422 27.2143 65.656 27.3707 65.7824 27.5166C65.4441 26.8696 65.1598 26.1958 64.9324 25.5021C64.3502 23.5846 64.3502 21.5375 64.9324 19.6201C65.8523 16.7925 67.6698 14.3423 70.1089 12.6415C72.9611 10.4341 76.5014 9.30513 80.1049 9.454C81.9655 9.61404 83.7538 10.2492 85.2985 11.2985C86.7305 12.2776 87.8445 13.6546 88.503 15.2595C89.0759 16.7254 89.3392 18.294 89.2765 19.8666C89.2235 21.245 88.9921 22.6107 88.588 23.9296C87.9722 25.8389 87.19 27.6905 86.2505 29.4631L85.511 30.9336C85.4169 31.0904 85.3373 31.2554 85.273 31.4266Z" fill="#455A64"/>
<path d="M33.9668 40.0544C34.0178 39.9864 33.0573 39.2809 31.8758 37.8019C30.3224 35.8919 29.2746 33.6218 28.829 31.2005C28.3834 28.7792 28.5542 26.2848 29.3258 23.9469C29.9123 22.1448 30.5583 21.1418 30.4818 21.1078C30.4053 21.0738 30.2778 21.3203 29.9973 21.7878C29.6112 22.442 29.2868 23.1306 29.0283 23.8449C28.1534 26.2218 27.9332 28.7902 28.3907 31.2814C28.8483 33.7725 29.9668 36.095 31.6293 38.0059C32.1252 38.5804 32.6713 39.1095 33.2613 39.5869C33.4727 39.776 33.7103 39.9334 33.9668 40.0544Z" fill="#455A64"/>
<path d="M43.0879 39.9691C43.0879 39.9266 42.5949 39.7311 41.8129 39.1701C40.7241 38.3854 39.8738 37.3145 39.3564 36.0761L38.9654 35.1071L39.0334 36.1526C39.1269 37.5636 39.2374 39.1871 39.3479 40.9551L39.6794 40.7681C38.2711 39.7547 37.0768 38.4732 36.1651 36.997C35.2535 35.5208 34.6423 33.8791 34.3668 32.1661C34.1368 30.6005 34.1829 29.0068 34.5028 27.4571C34.8436 26.0337 35.3514 24.6556 36.0159 23.3516C35.9412 23.4257 35.8756 23.5085 35.8203 23.5981C35.6539 23.8389 35.5007 24.0886 35.3614 24.3461C34.8428 25.3047 34.4541 26.328 34.2053 27.3891C33.6076 29.9372 33.7869 32.606 34.7201 35.0513C35.6534 37.4966 37.2978 39.6062 39.4414 41.1081L39.8069 41.3631V40.9211L39.4074 36.1271L39.0759 36.2036C39.6377 37.4841 40.5627 38.5716 41.7364 39.3316C42.0537 39.5355 42.3895 39.7091 42.7394 39.8501C42.8504 39.9035 42.9674 39.9435 43.0879 39.9691Z" fill="#455A64"/>
<path d="M46.351 18.9486C46.9566 17.8595 47.7677 16.8982 48.7395 16.1181C49.811 15.3157 51.058 14.7796 52.3775 14.5541C54.0008 14.2905 55.6652 14.4787 57.1886 15.0981C58.7172 15.71 60.0779 16.6774 61.1581 17.9201C62.0362 18.9316 62.7426 20.0802 63.2491 21.3201C63.6786 22.4965 64.0167 23.7043 64.2606 24.9327C64.2943 24.592 64.2771 24.2482 64.2096 23.9127C64.0905 22.9897 63.8681 22.083 63.5466 21.2096C63.062 19.904 62.3577 18.6908 61.4641 17.6226C60.3542 16.3142 58.9421 15.2959 57.3501 14.6561C55.7502 14.0092 54.001 13.8237 52.301 14.1206C50.9234 14.3853 49.6327 14.9869 48.544 15.8716C47.814 16.4626 47.2026 17.1866 46.742 18.0051C46.6203 18.2278 46.5124 18.4577 46.419 18.6936C46.3812 18.7739 46.3582 18.8602 46.351 18.9486Z" fill="#455A64"/>
<path d="M48.8667 11.3666C49.7709 10.9374 50.7165 10.6013 51.6887 10.3636C54.0178 9.92527 56.4268 10.3258 58.4888 11.4941C60.5336 12.7315 62.1822 14.5275 63.2403 16.6707C64.0903 18.3027 64.3198 19.4332 64.3963 19.4077C64.3999 19.136 64.3567 18.8657 64.2688 18.6087C64.0811 17.8939 63.8308 17.197 63.5208 16.5262C62.507 14.2892 60.8344 12.415 58.7268 11.1541C56.5649 9.91469 54.0145 9.53819 51.5867 10.1001C50.8603 10.2809 50.1644 10.5673 49.5212 10.9501C49.2844 11.0572 49.064 11.1974 48.8667 11.3666Z" fill="#455A64"/>
<path d="M110.119 246.801L15.1399 248.093C15.1399 248.093 -11.4227 236.975 -18.7242 236.677C-26.0257 236.38 -40.5098 237.306 -47.2078 248.093C-54.1354 259.245 -55.1044 278.914 -33.7608 293.203C-12.9697 307.126 82.0862 319.986 95.1168 318.805L119.121 286.556C119.121 286.556 119.367 260.129 119.121 258.871C118.874 257.613 114.871 246.291 114.871 246.291L110.119 246.801Z" fill="#263238"/>
<path d="M53.253 291.409L4.02931 309.693L26.4609 371.037C32.19 368.538 32.3514 332.498 32.3514 332.498L64.3711 322.077L53.253 291.409Z" fill="#FFEE32"/>
<g opacity="0.6">
<path d="M28.076 312.557C27.6805 312.032 27.1054 311.672 26.4609 311.545C25.8163 311.418 25.1475 311.533 24.5825 311.868C24.0422 312.241 23.6664 312.808 23.5334 313.451C23.4005 314.094 23.5204 314.763 23.8685 315.319C24.608 316.407 26.563 316.866 27.5745 316.033C28.586 315.2 28.892 313.228 27.9145 312.353" fill="white"/>
</g>
<path d="M4.02888 309.692L9.00141 307.805L28.6875 367.476C28.6875 367.476 28.5005 370.646 26.4605 371.037L4.02888 309.692Z" fill="#263238"/>
<path d="M32.9892 333.373C32.6832 333.475 32.0032 332.03 30.4987 330.908C28.9942 329.786 27.4472 329.463 27.4642 329.14C27.4812 328.817 29.3767 328.639 31.1702 329.99C32.9637 331.342 33.3292 333.305 32.9892 333.373Z" fill="#263238"/>
<path d="M32.7165 340.786C32.453 340.956 31.4755 339.851 29.835 339.298C28.1945 338.746 26.7495 338.933 26.6475 338.635C26.5455 338.338 28.1775 337.522 30.2005 338.244C32.2235 338.967 32.9885 340.675 32.7165 340.786Z" fill="#263238"/>
<path d="M26.3582 347.254C26.1882 347.008 27.5397 346.039 29.4607 346.209C31.3817 346.379 32.5462 347.543 32.3422 347.764C32.1382 347.985 30.9482 347.433 29.3672 347.314C27.7861 347.195 26.4942 347.543 26.3582 347.254Z" fill="#263238"/>
<path d="M40.0612 330.195C39.7467 330.195 39.6532 328.639 38.9222 326.99C38.1912 325.341 37.1712 324.211 37.3667 323.964C37.5622 323.718 39.0667 324.593 39.9167 326.514C40.7667 328.435 40.3502 330.254 40.0612 330.195Z" fill="#263238"/>
<path d="M46.8105 326.072C46.683 326.115 46.071 325.001 45.697 322.995C45.4937 321.814 45.4309 320.613 45.51 319.417C45.5632 318.709 45.6597 318.005 45.799 317.309C45.8698 316.895 46.0016 316.494 46.19 316.119C46.3286 315.843 46.5555 315.623 46.8344 315.492C47.1134 315.361 47.4282 315.327 47.7285 315.396C47.9924 315.469 48.2354 315.604 48.4377 315.788C48.6401 315.973 48.796 316.202 48.893 316.459C49.0358 316.847 49.1245 317.253 49.1565 317.666C49.2379 318.38 49.2522 319.1 49.199 319.816C49.1059 321.027 48.8189 322.215 48.349 323.335C47.55 325.239 46.649 326.132 46.513 326.055C46.377 325.979 47.057 324.916 47.6095 323.072C47.9338 321.998 48.1166 320.886 48.1535 319.765C48.1737 319.109 48.1396 318.452 48.0515 317.802C47.9835 317.088 47.788 316.535 47.4395 316.476C47.3035 316.476 47.261 316.476 47.1165 316.671C46.9885 316.942 46.8943 317.227 46.836 317.521C46.6877 318.166 46.577 318.819 46.5045 319.476C46.3825 320.605 46.3654 321.744 46.4535 322.876C46.5895 324.806 46.972 326.013 46.8105 326.072Z" fill="#263238"/>
<path d="M46.2319 325.834C46.1469 325.749 47.0054 324.763 48.9094 323.938C50.0222 323.456 51.2096 323.168 52.4199 323.088C53.1412 323.052 53.8643 323.086 54.5789 323.19C55.0441 323.208 55.4969 323.345 55.8931 323.589C56.2894 323.834 56.6156 324.177 56.8399 324.584C56.9351 324.858 56.9496 325.154 56.8818 325.435C56.814 325.717 56.6667 325.973 56.4574 326.174C56.157 326.465 55.8163 326.711 55.4459 326.905C54.7975 327.262 54.098 327.517 53.3719 327.661C52.1629 327.918 50.9087 327.865 49.7254 327.508C47.6939 326.896 46.8779 325.808 46.9714 325.715C47.0649 325.621 48.0424 326.386 49.9039 326.752C50.9798 326.956 52.0871 326.927 53.1509 326.667C53.7633 326.51 54.3521 326.273 54.9019 325.961C55.5224 325.621 55.9559 325.188 55.8029 324.967C55.6499 324.746 55.0124 324.321 54.4004 324.261C53.7602 324.153 53.1117 324.102 52.4624 324.108C51.3469 324.132 50.24 324.31 49.1729 324.635C47.3454 325.256 46.3424 325.987 46.2319 325.834Z" fill="#263238"/>
<path d="M93.849 283.827L141.449 305.927L114.249 365.326C108.741 362.385 111.41 326.438 111.41 326.438L80.3084 313.535L93.849 283.827Z" fill="#FFEE32"/>
<g opacity="0.6">
<path d="M117.284 306.887C117.719 306.395 118.32 306.08 118.973 306.003C119.625 305.927 120.283 306.093 120.82 306.471C121.33 306.886 121.66 307.482 121.74 308.135C121.821 308.787 121.647 309.446 121.254 309.973C120.404 310.993 118.457 311.299 117.514 310.389C116.57 309.48 116.417 307.491 117.463 306.7" fill="white"/>
</g>
<path d="M141.475 305.918L136.672 303.691L112.353 361.594C112.353 361.594 112.294 364.764 114.291 365.317L141.475 305.918Z" fill="#263238"/>
<path d="M110.705 327.254C111.003 327.381 111.802 325.987 113.383 324.984C114.964 323.981 116.536 323.786 116.545 323.463C116.553 323.14 114.675 322.808 112.779 324.058C110.884 325.307 110.416 327.194 110.705 327.254Z" fill="#263238"/>
<path d="M110.434 334.666C110.689 334.861 111.751 333.816 113.434 333.408C115.117 333 116.537 333.289 116.656 333C116.775 332.711 115.219 331.767 113.145 332.328C111.071 332.889 110.162 334.53 110.434 334.666Z" fill="#263238"/>
<path d="M116.29 341.619C116.468 341.381 115.21 340.31 113.281 340.327C111.351 340.344 110.093 341.415 110.28 341.653C110.467 341.891 111.7 341.432 113.281 341.44C114.862 341.449 116.111 341.891 116.29 341.619Z" fill="#263238"/>
<path d="M103.947 323.53C104.27 323.53 104.474 322.009 105.341 320.428C106.208 318.847 107.305 317.793 107.118 317.529C106.931 317.266 105.35 318.022 104.355 319.909C103.361 321.796 103.658 323.564 103.947 323.53Z" fill="#263238"/>
<path d="M97.5481 318.856C97.6671 318.915 98.3981 317.844 98.8911 315.872C99.1956 314.712 99.3555 313.519 99.3671 312.319C99.3695 311.612 99.3269 310.905 99.2396 310.203C99.2094 309.782 99.1118 309.369 98.9506 308.979C98.8355 308.691 98.6269 308.451 98.3586 308.297C98.0902 308.143 97.7778 308.084 97.4716 308.129C97.2013 308.176 96.9464 308.288 96.7288 308.455C96.5112 308.623 96.3374 308.84 96.2221 309.089C96.0493 309.493 95.9376 309.919 95.8906 310.356C95.7546 311.062 95.6835 311.779 95.6781 312.498C95.6738 313.706 95.8574 314.907 96.2221 316.059C96.8681 318.023 97.7351 318.992 97.8371 318.915C97.9391 318.839 97.3951 317.742 96.9871 315.855C96.749 314.762 96.6547 313.641 96.7066 312.523C96.7356 311.865 96.8209 311.211 96.9616 310.568C97.0806 309.871 97.3186 309.327 97.6756 309.293C97.8116 309.293 97.8541 309.293 97.9816 309.514C98.0851 309.788 98.1536 310.073 98.1856 310.364C98.2849 311.02 98.3446 311.682 98.3641 312.345C98.4022 313.482 98.331 314.621 98.1516 315.745C97.8201 317.666 97.3866 318.856 97.5481 318.856Z" fill="#263238"/>
<path d="M98.1331 318.703C98.2266 318.618 97.4531 317.564 95.6256 316.603C93.8997 315.712 91.9613 315.315 90.0241 315.456C89.5582 315.435 89.095 315.536 88.6795 315.747C88.2639 315.959 87.9102 316.274 87.6525 316.663C87.5383 316.93 87.5025 317.225 87.5491 317.513C87.5958 317.8 87.723 318.068 87.916 318.286C88.194 318.599 88.5145 318.87 88.8681 319.094C89.4865 319.499 90.1629 319.809 90.8741 320.012C92.0597 320.357 93.3125 320.404 94.5206 320.148C96.5946 319.689 97.4956 318.643 97.4106 318.567C97.3256 318.49 96.2886 319.162 94.4016 319.417C93.313 319.538 92.211 319.422 91.1716 319.077C90.5673 318.876 89.9949 318.589 89.4716 318.227C88.885 317.844 88.477 317.377 88.6215 317.173C88.8042 316.974 89.0282 316.817 89.2779 316.715C89.5276 316.612 89.7968 316.565 90.0666 316.578C90.7167 316.514 91.3715 316.514 92.0216 316.578C93.13 316.683 94.2177 316.946 95.2516 317.36C97.0791 318.006 98.0226 318.856 98.1331 318.703Z" fill="#263238"/>
<path d="M114.845 246.299C114.845 246.299 155.866 230.999 170.945 232.954C179.385 234.068 192.586 240.511 193.597 251.331C194.609 262.152 191.957 276.627 177.362 283.674C162.768 290.72 104.509 316.866 90.662 320.887C76.8154 324.908 42.3393 334.343 42.3393 334.343L29.2322 296.942C29.2322 296.942 100.76 272.173 104.534 269.402C108.308 266.631 117.871 262.866 117.871 262.866L114.845 246.299Z" fill="#263238"/>
<path d="M-27.7611 251.374L-27.4721 251.306L-26.6221 251.051C-25.8996 250.838 -24.8286 250.524 -23.4346 250.201C-19.5026 249.202 -15.4262 248.9 -11.3901 249.308C-8.60664 249.547 -5.85513 250.071 -3.17902 250.872C-1.69365 251.322 -0.246834 251.891 1.14751 252.572L5.61002 254.757C11.747 257.689 18.6066 260.707 25.8996 263.571C40.5197 269.428 54.5532 272.207 64.5578 274.485C69.5728 275.59 73.6358 276.508 76.4578 277.171L79.6793 277.936L80.5293 278.123L80.8184 278.174C80.7337 278.128 80.6417 278.096 80.5464 278.081L79.6963 277.851C78.9653 277.656 77.8943 277.35 76.4918 277.001C73.7123 276.287 69.6918 275.301 64.6513 274.179C54.6552 271.825 40.6642 269.003 26.0951 263.129C18.8021 260.248 11.951 257.264 5.81402 254.349L1.34299 252.19C-0.0735855 251.505 -1.54321 250.937 -3.05152 250.49C-5.75197 249.689 -8.53024 249.179 -11.3391 248.968C-15.4229 248.577 -19.5439 248.929 -23.5026 250.005C-24.8966 250.362 -25.9591 250.702 -26.6816 250.949L-27.4891 251.246L-27.7611 251.374Z" fill="#455A64"/>
<path d="M132.099 257.145C132.142 257.205 133.281 256.295 135.244 255.114C140.373 251.924 146.138 249.893 152.134 249.164C154.429 248.875 155.865 248.849 155.865 248.773C155.532 248.713 155.192 248.693 154.854 248.713C154.199 248.713 153.256 248.713 152.1 248.849C146.026 249.427 140.187 251.491 135.1 254.859C134.329 255.36 133.585 255.902 132.873 256.482C132.587 256.668 132.326 256.891 132.099 257.145Z" fill="#455A64"/>
<path d="M111.512 312.906L111.189 313.025L110.263 313.416C109.413 313.756 108.24 314.317 106.633 314.937C103.437 316.204 98.7196 317.938 92.6591 319.935C80.5465 323.888 63.1299 328.937 42.2878 334.181L42.5173 334.309L29.8353 299.11L29.7163 299.391L45.4244 292.939L132.32 257.145C135.856 253.405 139.12 250.107 142.163 247.438C144.75 245.157 147.509 243.08 150.417 241.225C152.246 240.073 154.136 239.021 156.078 238.071L157.599 237.357L158.109 237.102L157.582 237.323L156.044 237.995C154.081 238.913 152.174 239.946 150.332 241.089C147.398 242.924 144.616 244.991 142.01 247.268C138.933 249.92 135.661 253.218 132.108 256.941H132.159L45.2544 292.506L29.5463 298.957L29.3593 299.034L29.4273 299.238L42.1773 334.419L42.2368 334.589L42.4153 334.547C63.2574 329.26 80.6655 324.16 92.7696 320.097C98.8216 318.074 103.531 316.297 106.718 314.997C108.316 314.368 109.506 313.781 110.322 313.424L111.24 313.008L111.512 312.906Z" fill="#455A64"/>
<path d="M10.1248 115.56C10.1248 115.56 -1.69025 122.36 -4.08726 130.359C-5.54076 135.212 -16.5568 197.313 -18.2993 209.554C-20.0418 221.794 -16.3613 230.872 -11.1423 234.935C-5.92328 238.998 9.91231 244.404 9.91231 244.404L32.1399 251.62L38.5234 235.368L17.3583 204.955L19.3898 184.41L10.1248 115.56Z" fill="#FFEE32"/>
<path d="M33.3387 104.833L42.2127 99.7328C42.2127 99.7328 50.2963 109.185 61.3208 108.029C72.3454 106.873 78.8904 98.4663 78.8904 98.4663L111.769 105.156C113.97 105.598 117.991 106.992 121.841 112.491C126.134 118.62 146.491 145.812 146.491 145.812H160.703C162.628 145.811 164.516 146.337 166.164 147.332C167.812 148.326 169.157 149.752 170.053 151.456C172.484 156.088 175.4 162.276 175.153 164.843C174.669 169.187 175.51 181.095 169.688 184.81C167.843 185.991 161.247 189.527 156.088 189.289C148.531 188.932 139.751 184.997 134.693 181.461C130.443 178.46 120.456 168.107 116.622 164.07V164.155L114.157 250.388L27.9667 247.94L10.1166 115.577C10.1166 115.577 32.4717 104.833 33.3387 104.833Z" fill="#FFEE32"/>
<path d="M116.935 127.945C116.816 127.945 116.587 138.629 116.434 151.813C116.281 164.996 116.247 175.689 116.374 175.689C116.502 175.689 116.723 165.005 116.876 151.821C117.029 138.638 117.054 127.945 116.935 127.945Z" fill="#263238"/>
<path d="M-0.314529 197.653C-0.314529 197.653 0.416462 197.772 1.71697 198.019C3.55406 198.385 5.34451 198.955 7.05499 199.719C9.58651 200.861 11.9722 202.302 14.161 204.012C16.8436 206.111 19.3483 208.428 21.6496 210.939C24.1146 213.6 26.3586 216.226 28.4496 218.589C30.3062 220.67 32.2665 222.656 34.3231 224.539C35.7144 225.813 37.1881 226.995 38.7347 228.075C39.2787 228.458 39.7291 228.713 40.0266 228.925C40.1715 229.029 40.3285 229.115 40.4941 229.18C40.3667 229.056 40.2272 228.945 40.0776 228.849C39.7971 228.636 39.3637 228.356 38.8366 227.948C37.333 226.826 35.8969 225.617 34.5356 224.327C32.7931 222.712 30.8466 220.655 28.7556 218.3C26.6646 215.946 24.4206 213.311 21.9556 210.65C19.6349 208.125 17.1041 205.802 14.3905 203.706C12.1678 201.995 9.7408 200.567 7.1655 199.455C5.42587 198.71 3.60195 198.179 1.73398 197.874C1.07098 197.747 0.552464 197.747 0.20396 197.704C0.0338745 197.666 -0.140259 197.649 -0.314529 197.653Z" fill="#263238"/>
<path d="M-2.26947 191.814C-2.26947 191.89 -0.960464 192.077 1.13054 192.664C6.50459 194.151 11.3806 197.055 15.2491 201.071C16.7281 202.609 17.5186 203.68 17.5781 203.621C17.4465 203.338 17.281 203.072 17.0851 202.83C16.5936 202.135 16.0569 201.474 15.4786 200.85C11.6822 196.652 6.71351 193.691 1.21555 192.349C0.389208 192.146 -0.447954 191.99 -1.29194 191.882C-1.61304 191.814 -1.94206 191.791 -2.26947 191.814Z" fill="#263238"/>
<g opacity="0.3">
<path d="M158.152 176.675C153.588 177.916 148.114 171.354 143.966 167.249C141.815 165.107 139.571 162.829 138.772 159.896C138.211 157.432 138.465 154.852 139.495 152.544C140.259 150.463 141.278 148.484 142.529 146.653C142.147 150.198 141.271 155.621 142.461 160.075C143.456 163.789 145.81 166.739 148.309 169.544C150.944 172.51 154.072 175.621 158.152 176.675Z" fill="black"/>
</g>
<path d="M138.645 172.918C138.73 172.918 138.203 171.414 137.795 168.94C137.547 167.493 137.408 166.03 137.378 164.563C137.348 162.768 137.467 160.974 137.735 159.199C138.028 157.427 138.466 155.681 139.044 153.98C139.528 152.593 140.114 151.244 140.795 149.943C141.96 147.716 142.92 146.475 142.852 146.424C142.584 146.678 142.347 146.963 142.147 147.274C141.878 147.609 141.631 147.961 141.407 148.328C141.135 148.753 140.812 149.229 140.515 149.79C139.79 151.087 139.17 152.44 138.662 153.836C138.05 155.554 137.595 157.323 137.302 159.123C137.025 160.925 136.914 162.749 136.97 164.571C137.016 166.059 137.189 167.541 137.489 169C137.591 169.629 137.752 170.173 137.88 170.7C137.983 171.117 138.108 171.528 138.254 171.932C138.352 172.273 138.483 172.603 138.645 172.918Z" fill="#263238"/>
<path d="M75.2861 101.799C75.2266 101.909 76.2381 102.496 77.2921 103.448C78.3461 104.4 79.0601 105.326 79.1621 105.25C78.7919 104.436 78.2559 103.709 77.5885 103.115C76.921 102.521 76.1368 102.072 75.2861 101.799Z" fill="#263238"/>
<path d="M66.319 107.009C66.2255 107.103 67.0925 108.029 67.7895 109.406C68.4865 110.783 68.75 112.024 68.8775 111.956C68.9386 110.974 68.6952 109.998 68.1805 109.16C67.79 108.272 67.1413 107.523 66.319 107.009Z" fill="#263238"/>
<path d="M50.9589 112.415C51.3698 111.6 51.7 110.745 51.9449 109.865C52.32 109.028 52.605 108.153 52.7949 107.256C52.1938 107.976 51.7534 108.817 51.5029 109.721C51.1273 110.569 50.9416 111.488 50.9589 112.415Z" fill="#263238"/>
<path d="M41.0722 107.74C41.2082 107.74 41.5397 106.27 42.5172 104.68C43.4947 103.091 44.6507 102.088 44.5572 101.986C43.5236 102.549 42.6805 103.407 42.1347 104.451C41.4628 105.418 41.093 106.563 41.0722 107.74Z" fill="#263238"/>
<path d="M12.7003 135.671C12.5728 135.671 14.0348 147.469 15.9558 161.979C17.8768 176.489 19.5343 188.244 19.6533 188.227C19.7723 188.21 18.3188 176.438 16.3978 161.92C14.4768 147.401 12.8193 135.654 12.7003 135.671Z" fill="#263238"/>
<path d="M141.858 154.746C141.824 155.15 141.824 155.557 141.858 155.961C141.881 156.438 141.941 156.913 142.037 157.381C142.088 157.661 142.13 157.95 142.19 158.231C142.249 158.511 142.343 158.86 142.436 159.2C142.855 160.794 143.425 162.345 144.136 163.832C145.029 165.642 146.091 167.364 147.307 168.975C148.558 170.573 149.983 172.027 151.557 173.31C152.852 174.347 154.282 175.205 155.807 175.86C156.138 175.987 156.444 176.132 156.742 176.242L157.592 176.48L158.34 176.684C158.569 176.735 158.79 176.744 158.986 176.778C159.388 176.842 159.794 176.873 160.201 176.871C158.744 176.583 157.32 176.147 155.951 175.571C154.484 174.896 153.108 174.039 151.854 173.021C150.338 171.751 148.96 170.327 147.74 168.771C146.542 167.186 145.489 165.496 144.595 163.722C143.876 162.262 143.285 160.744 142.827 159.183C142.428 157.721 142.104 156.24 141.858 154.746Z" fill="#263238"/>
<path d="M125.988 204.215C125.869 204.215 125.359 214.968 124.866 228.236C124.373 241.505 124.067 252.266 124.186 252.266C124.305 252.266 124.79 241.505 125.308 228.245C125.827 214.985 126.107 204.224 125.988 204.215Z" fill="#263238"/>
<path d="M156.622 120.728C157.225 120.218 154.607 110.171 154.607 110.171C154.607 110.171 161.526 98.8916 161.705 95.2536C161.883 91.6155 158.976 84.1525 158.976 84.1525L139.146 79.0525C139.146 79.0525 132.771 90.8845 131.496 95.0666C130.221 99.2486 133.68 113.444 133.68 113.444L137.08 120.728C137.08 120.728 147.178 128.735 156.622 120.728Z" fill="#936760"/>
<path d="M161.141 97.889C161.967 96.4854 162.716 95.038 163.385 93.5532C164.737 90.6236 166.385 87.7553 163.649 85.9928C163.223 85.6905 162.737 85.4831 162.224 85.3844C161.711 85.2858 161.183 85.2983 160.675 85.4211C160.675 85.4211 161.189 82.8875 159.725 81.9348C159.3 81.6479 158.812 81.4659 158.303 81.4038C157.793 81.3417 157.277 81.4011 156.795 81.5773C156.795 81.5773 157.394 78.0601 155.271 76.4891C154.481 75.9264 153.549 75.5953 152.58 75.5329C151.612 75.4705 150.645 75.6794 149.789 76.136C149.789 76.136 152.028 60.7262 152.21 59.916C152.858 56.9278 151.839 54.2216 148.822 54.8647C147.717 55.0983 147.074 56.2325 145.607 61.2249C144.139 66.2172 141.775 74.742 141.775 74.742C141.775 74.742 138.081 80.6687 136.352 83.9083C134.623 87.148 131.075 94.4917 130.733 96.47C129.859 101.543 132.62 108.443 132.62 108.443L153.645 110.402L161.141 97.889Z" fill="#936760"/>
<path d="M160.355 85.6484C159.754 86.3653 159.208 87.1268 158.723 87.9265L157.023 90.4765C156.678 90.9786 156.374 91.5073 156.113 92.0575C155.817 92.685 155.73 93.3914 155.867 94.072C155.931 94.4275 156.088 94.7596 156.323 95.0344C156.557 95.3092 156.86 95.5168 157.201 95.636C157.838 95.7952 158.511 95.7103 159.088 95.398C159.585 95.1602 160.057 94.8755 160.499 94.548C160.907 94.2505 161.29 93.9615 161.63 93.698C162.318 93.1625 162.845 92.7035 163.202 92.372C163.559 92.0405 163.746 91.8535 163.729 91.828C163.712 91.8025 162.879 92.4485 161.443 93.443C160.64 94.0475 159.787 94.5822 158.893 95.041C158.405 95.2979 157.839 95.3674 157.303 95.2365C157.036 95.1394 156.799 94.9722 156.618 94.7524C156.437 94.5326 156.319 94.2683 156.275 93.987C156.167 93.412 156.241 92.8176 156.487 92.287C156.732 91.7562 157.016 91.2448 157.337 90.757L158.927 88.2069C159.474 87.3956 159.951 86.5397 160.355 85.6484Z" fill="#6F4C47"/>
<path d="M143.064 87.493C143.245 86.3857 143.17 85.2514 142.843 84.178C142.652 83.0707 142.2 82.0247 141.525 81.1265C141.406 81.186 141.993 82.5375 142.375 84.28C142.758 86.0225 142.928 87.493 143.064 87.493Z" fill="#6F4C47"/>
<path d="M134.701 92.0152C136.647 90.1314 139.097 88.8528 141.756 88.3347C144.402 87.8249 147.111 87.7217 149.788 88.0287C151.93 88.2242 154.387 88.7767 155.356 90.6977C156.325 92.6187 155.152 95.2197 153.256 96.3502C151.361 97.4808 149.006 97.5318 146.788 97.3363C144.569 97.1408 142.359 96.7243 140.166 97.0643" fill="#936760"/>
<path d="M140.166 97.0641C140.166 97.0641 140.761 97.0046 141.866 97.0641C143.376 97.1296 144.883 97.2715 146.379 97.4891C147.43 97.6234 148.491 97.6688 149.55 97.6251C150.784 97.583 151.995 97.2787 153.103 96.7326C154.339 96.0816 155.281 94.9845 155.738 93.6641C155.98 92.9591 156.033 92.2028 155.891 91.471C155.709 90.7165 155.303 90.0348 154.726 89.516C153.555 88.6107 152.147 88.0644 150.672 87.9435C149.343 87.7873 148.006 87.7078 146.668 87.7055C144.392 87.664 142.125 88.006 139.962 88.717C138.506 89.206 137.146 89.9421 135.941 90.893C135.612 91.1535 135.302 91.4375 135.015 91.743C134.907 91.8406 134.812 91.9521 134.734 92.0745C134.734 92.0745 135.176 91.675 136.043 91.046C137.268 90.1653 138.625 89.4853 140.064 89.0315C142.199 88.3741 144.427 88.0698 146.66 88.1305C147.981 88.1451 149.301 88.2331 150.612 88.394C152 88.5049 153.325 89.0157 154.429 89.8645C154.936 90.3134 155.295 90.9065 155.457 91.5645C155.59 92.2188 155.546 92.8965 155.33 93.5281C154.912 94.7496 154.046 95.7672 152.907 96.3756C151.847 96.8983 150.688 97.1881 149.507 97.2256C148.47 97.2828 147.429 97.2572 146.396 97.1491C144.885 96.952 143.364 96.8526 141.84 96.8516C141.428 96.8701 141.016 96.9098 140.608 96.9706C140.456 96.9796 140.307 97.0111 140.166 97.0641Z" fill="#6F4C47"/>
<path d="M160.201 85.895C157.983 89.295 156.028 92.967 154.158 96.537C153.711 97.6301 152.977 98.5818 152.033 99.291C151.234 99.784 149.253 98.8915 148.361 98.5855L154.455 84.7305" fill="#936760"/>
<path d="M154.455 84.7305C154.242 85.0555 154.06 85.3999 153.911 85.759L152.568 88.666C151.438 91.131 149.891 94.616 148.165 98.5005L148.063 98.713L148.293 98.798C148.947 99.0275 149.653 99.325 150.418 99.5205C150.724 99.5967 151.037 99.6423 151.353 99.6565C151.519 99.6645 151.685 99.6473 151.846 99.6055C152.014 99.5641 152.171 99.4857 152.305 99.376C152.795 99.0224 153.214 98.5781 153.537 98.067C154.158 97.081 154.6 96.095 155.101 95.1855C156.053 93.341 156.929 91.692 157.694 90.315C158.459 88.938 159.088 87.8415 159.538 87.085C159.786 86.7041 160.008 86.3065 160.201 85.895C159.896 86.2352 159.625 86.6054 159.394 87C158.901 87.7225 158.212 88.802 157.422 90.162C156.631 91.522 155.722 93.154 154.736 94.99C154.234 95.8995 153.767 96.9025 153.172 97.829C152.876 98.2902 152.499 98.6935 152.058 99.019C151.823 99.1409 151.565 99.2102 151.301 99.2219C151.036 99.2337 150.773 99.1876 150.528 99.087C149.806 98.9085 149.117 98.6195 148.437 98.3815L148.59 98.7045C150.29 94.786 151.803 91.3095 152.84 88.8105L154.064 85.8525C154.227 85.4907 154.358 85.1153 154.455 84.7305Z" fill="#6F4C47"/>
<path d="M156.096 80.6079C154.141 85.5209 152.183 90.4311 150.222 95.3384C149.865 96.4063 149.331 97.4064 148.641 98.2965C148.293 98.7385 147.84 99.0872 147.324 99.3112C146.808 99.5352 146.244 99.6276 145.683 99.58C144.153 99.359 143.133 97.7355 143.074 96.18C143.121 94.6281 143.497 93.104 144.179 91.7089C145.935 87.2289 147.342 82.6194 148.386 77.9219" fill="#936760"/>
<path d="M148.385 77.9304C148.326 78.0768 148.277 78.2274 148.241 78.3809C148.147 78.7209 148.037 79.1544 147.892 79.6814C147.586 80.8119 147.144 82.4439 146.524 84.4415C145.903 86.439 145.104 88.7935 144.093 91.3605C143.466 92.7055 143.05 94.139 142.86 95.6105C142.804 96.4184 142.959 97.227 143.31 97.9565C143.67 98.719 144.296 99.3237 145.07 99.6565C145.472 99.8037 145.902 99.8617 146.329 99.8265C146.756 99.7913 147.171 99.6637 147.544 99.4525C148.241 99.0638 148.827 98.5017 149.244 97.8205C149.946 96.5377 150.54 95.1986 151.02 93.817C152.023 91.267 152.924 88.938 153.698 86.9745C154.471 85.011 155.024 83.4894 155.466 82.3419L155.933 81.0754C155.994 80.9281 156.037 80.774 156.061 80.6164C155.975 80.75 155.903 80.8925 155.848 81.0414L155.304 82.2739C154.837 83.4129 154.191 84.9685 153.409 86.8555C152.627 88.7425 151.709 91.1055 150.638 93.6555C150.159 95.0047 149.57 96.3125 148.878 97.5655C148.493 98.1879 147.95 98.698 147.306 99.0445C146.987 99.2234 146.635 99.3319 146.271 99.3627C145.907 99.3935 145.541 99.3459 145.197 99.223C144.519 98.9273 143.975 98.3915 143.668 97.7185C143.348 97.0581 143.207 96.3253 143.259 95.5935C143.448 94.1795 143.846 92.8016 144.441 91.505C145.436 88.955 146.209 86.5325 146.787 84.5265C147.365 82.5204 147.773 80.8544 148.028 79.7154C148.147 79.1374 148.241 78.6954 148.292 78.3894C148.346 78.2422 148.378 78.0874 148.385 77.9304Z" fill="#6F4C47"/>
<path d="M155.627 115.144C155.627 115.144 169.074 154.805 169.61 156.743C170.145 158.681 166.949 172.85 161.11 176.208C155.27 179.566 143.94 165.591 142.529 160.457C141.118 155.323 142.529 146.653 142.529 146.653L133.459 112.492" fill="#936760"/>
<path d="M142.53 108.981C142.959 109.036 143.395 108.98 143.796 108.82C144.789 108.511 145.7 107.985 146.465 107.281C147.24 106.576 147.844 105.704 148.233 104.731C148.431 104.346 148.525 103.915 148.505 103.482C147.945 104.768 147.152 105.941 146.168 106.941C145.093 107.842 143.859 108.534 142.53 108.981Z" fill="#6F4C47"/>
</svg>
